<?xml version="1.0" standalone="no"?>
<!DOCTYPE svg PUBLIC "-//W3C//DTD SVG 20010904//EN"
 "http://www.w3.org/TR/2001/REC-SVG-20010904/DTD/svg10.dtd">
<svg version="1.0" xmlns="http://www.w3.org/2000/svg"
 width="139.000000pt" height="140.000000pt" viewBox="0 0 139.000000 140.000000"
 preserveAspectRatio="xMidYMid meet">
<metadata>
Created by potrace 1.16, written by Peter Selinger 2001-2019
</metadata>
<g transform="translate(0.000000,140.000000) scale(0.100000,-0.100000)"
fill="#000000" stroke="none">
<path d="M320 1367 c0 -18 -4 -48 -9 -67 -5 -19 -12 -47 -15 -61 -3 -14 -17
-31 -31 -37 -15 -7 -24 -8 -21 -4 3 5 -2 9 -10 9 -8 0 -13 -6 -10 -14 5 -12
-6 -17 -26 -14 -5 0 -8 -4 -8 -9 0 -6 -25 -10 -55 -10 -42 0 -55 3 -55 15 0 8
-7 15 -15 15 -8 0 -15 5 -15 10 0 5 -5 9 -12 7 -7 -1 -12 4 -13 12 0 8 -6 16
-12 19 -10 3 -13 -48 -13 -232 0 -130 3 -236 8 -236 4 0 16 13 27 29 11 17 21
28 24 26 2 -3 -4 -14 -14 -25 -11 -12 -13 -20 -6 -20 6 0 14 7 17 15 4 8 9 13
13 11 3 -2 6 6 6 19 0 13 -3 21 -7 19 -9 -6 -4 39 7 73 4 11 16 24 28 27 12 3
18 8 15 12 -4 3 14 22 39 41 42 32 46 33 59 16 13 -17 14 -17 7 1 -5 16 -3 18
12 13 14 -6 16 -5 6 7 -9 11 -8 15 6 21 48 19 72 23 77 12 3 -9 5 -8 5 1 1 17
16 15 36 -4 15 -15 17 -15 35 1 11 10 17 22 14 27 -8 12 24 105 53 156 24 40
66 82 84 82 18 0 -5 -32 -30 -42 -15 -6 -21 -12 -13 -15 6 -3 9 -9 6 -15 -4
-7 -9 -6 -14 2 -5 8 -13 1 -24 -21 -11 -21 -13 -35 -6 -37 5 -2 0 -11 -11 -21
-18 -15 -20 -21 -10 -39 14 -26 6 -46 -15 -38 -8 3 -14 1 -14 -5 0 -7 20 -8
58 -3 67 8 75 11 65 27 -14 22 -12 75 3 88 8 7 14 29 14 56 0 24 4 42 8 39 5
-3 24 8 43 24 29 24 30 28 11 23 -12 -3 -29 -15 -37 -26 -13 -18 -15 -19 -15
-4 0 25 40 46 105 57 32 5 60 12 62 14 3 3 -90 5 -206 5 l-211 0 0 -32z"/>
<path d="M789 1371 c25 -17 49 -27 54 -24 6 3 7 2 4 -4 -4 -5 7 -22 23 -38 16
-15 34 -40 40 -56 7 -16 16 -29 20 -29 10 0 50 -93 50 -116 0 -9 7 -41 16 -69
16 -49 16 -53 -1 -79 l-18 -27 -26 29 c-14 16 -43 39 -64 51 -20 12 -34 27
-31 33 4 6 0 14 -7 20 -23 15 73 -2 98 -18 12 -8 27 -29 32 -47 9 -31 9 -31
10 -4 1 34 -27 63 -76 76 -43 11 -456 7 -488 -4 -42 -16 -55 -37 -55 -86 0
-39 -4 -50 -21 -60 -49 -26 -109 -92 -120 -131 -14 -55 7 -143 61 -249 12 -22
18 -44 14 -50 -3 -5 -3 -17 0 -26 5 -12 9 -13 21 -3 27 22 16 2 -17 -32 -25
-25 -51 -38 -103 -52 -38 -10 -77 -24 -86 -32 -11 -10 -18 -11 -26 -3 -12 12
-25 -2 -30 -31 -14 -75 -21 -102 -23 -85 -1 11 -2 23 -1 27 0 5 -4 7 -10 5 -6
-1 -14 4 -17 12 -2 8 0 11 5 8 5 -3 15 4 22 16 10 17 10 19 1 10 -11 -10 -16
-9 -26 4 -9 14 -12 -10 -12 -125 -1 -84 3 -142 8 -142 6 0 20 10 31 21 12 12
35 22 52 23 17 1 33 8 35 15 5 14 -10 13 -50 -4 -10 -4 -18 -3 -18 2 0 11 97
56 166 75 47 14 52 14 74 -4 15 -12 32 -17 44 -13 36 10 215 55 221 55 3 0 -6
-21 -19 -48 -55 -106 -76 -150 -76 -156 0 -16 39 -4 45 14 7 21 45 48 45 32 0
-5 -9 -17 -20 -27 -11 -10 -18 -21 -15 -23 3 -3 12 3 20 14 13 17 14 17 15 2
0 -38 17 -15 30 40 12 56 23 72 47 72 7 0 10 -9 7 -23 -7 -27 -11 -56 -13 -80
0 -10 -5 -16 -11 -12 -5 3 -7 12 -3 20 3 8 0 15 -6 15 -17 0 -13 -37 5 -44 23
-9 24 -6 40 71 21 107 21 109 17 95 -3 -7 -17 -19 -33 -27 -25 -13 -29 -13
-34 1 -3 9 -6 17 -6 19 0 8 32 35 42 35 6 0 0 -9 -13 -19 -27 -21 -21 -36 9
-26 14 4 23 18 27 48 4 23 3 43 -2 44 -11 4 -4 73 8 73 5 0 15 -15 22 -32 l14
-33 -2 48 c-2 49 2 55 25 35 8 -7 6 -2 -5 11 -17 21 -18 23 -3 18 13 -4 15 -2
11 11 -6 15 -5 15 10 3 9 -7 17 -21 17 -31 0 -10 15 -32 34 -48 l35 -30 -35
-17 c-42 -20 -44 -26 -4 -15 17 5 30 5 30 0 0 -4 8 -6 18 -4 22 5 47 -11 38
-25 -11 -17 -29 -13 -22 4 5 13 1 13 -27 -1 l-32 -17 28 -10 c22 -7 26 -12 16
-23 -6 -8 -22 -14 -36 -14 -20 0 -23 4 -18 21 6 18 4 20 -17 14 -12 -4 -27
-12 -33 -17 -7 -7 -3 -8 13 -3 14 4 22 2 22 -5 0 -7 -9 -14 -20 -17 -11 -3
-21 -13 -22 -22 0 -9 -2 -20 -3 -26 -2 -5 -3 -16 -4 -22 0 -7 -10 -13 -21 -13
-13 0 -24 -10 -30 -26 -14 -37 -11 -43 6 -11 19 35 47 37 38 2 -8 -32 -1 -32
21 1 9 15 12 23 6 20 -19 -12 -12 10 9 29 11 10 20 24 20 30 0 7 22 22 49 34
27 11 68 39 92 61 24 22 47 40 51 40 4 0 8 5 8 11 0 6 9 24 21 40 14 21 17 29
7 30 -7 0 -4 5 7 10 15 7 11 8 -19 5 l-39 -5 32 23 c17 13 51 31 76 40 24 10
44 21 43 24 -3 24 19 76 40 92 13 11 21 20 17 20 -16 0 27 38 56 50 26 11 32
10 48 -6 18 -19 18 -20 -18 -58 -48 -51 -10 -30 52 28 27 25 54 46 60 46 8 0
7 3 -1 9 -11 7 -10 10 3 15 9 3 20 4 24 1 4 -2 9 24 10 59 2 53 -4 79 -33 150
-19 47 -32 86 -30 86 11 0 33 -28 27 -34 -4 -3 -1 -6 6 -6 7 0 9 -4 6 -10 -3
-5 -1 -10 5 -10 6 0 9 -4 6 -9 -4 -5 -2 -20 3 -33 7 -20 9 -17 9 18 1 55 -36
97 -76 88 -15 -4 -30 -11 -33 -16 -3 -4 -15 6 -28 22 -12 17 -27 28 -33 24 -7
-4 -8 -3 -4 4 4 7 -10 22 -34 38 -22 15 -40 31 -40 36 0 6 -7 8 -14 5 -10 -4
-13 -1 -10 7 3 9 -6 18 -23 24 -27 10 -27 10 12 11 59 1 120 -31 266 -138 11
-7 19 -11 19 -7 0 8 -113 91 -170 125 -30 17 -65 28 -105 31 -37 3 -59 9 -58
16 1 7 -8 20 -20 30 l-22 19 19 -22 c19 -23 19 -23 -3 -23 -17 0 -21 -5 -17
-25 3 -14 0 -25 -5 -25 -5 0 -10 12 -11 28 -1 15 -2 34 -3 43 0 9 -8 27 -16
40 -29 44 -51 91 -39 84 8 -5 11 -1 8 11 -2 10 -13 24 -26 30 -12 6 -19 14
-15 17 3 4 1 7 -6 7 -7 0 -10 4 -7 9 7 11 -18 33 -27 24 -4 -3 -7 1 -7 10 0
22 9 21 27 0 13 -17 14 -16 10 4 -3 13 -1 26 4 29 8 5 14 -32 10 -63 -1 -7 3
-13 8 -13 6 0 20 -10 33 -23 13 -13 86 -61 163 -107 77 -46 165 -100 195 -120
82 -54 80 -54 77 -30 -2 11 -10 26 -17 33 -12 10 -12 9 -1 -5 7 -10 9 -18 5
-18 -18 0 -84 51 -79 60 3 5 -4 14 -16 20 -17 9 -20 9 -14 0 5 -8 3 -11 -6 -8
-8 3 -14 10 -14 17 0 7 -20 24 -45 38 -41 23 -37 15 7 -14 10 -6 13 -12 6 -12
-6 -1 -30 17 -53 39 -24 23 -48 39 -54 37 -6 -2 -16 1 -22 7 -6 6 -21 18 -33
26 -11 8 -21 21 -21 30 0 11 -2 12 -8 3 -6 -9 -17 -4 -41 21 -26 27 -29 35
-17 39 10 4 13 13 9 23 -4 12 -3 15 5 10 7 -4 12 -13 12 -20 0 -7 15 -28 34
-47 19 -18 33 -36 30 -40 -2 -4 3 -10 12 -13 8 -3 12 -2 9 4 -4 6 5 5 19 -1
14 -7 23 -16 20 -20 -3 -5 1 -6 9 -3 13 5 60 -19 220 -110 44 -26 47 -26 47
-9 0 18 -112 89 -247 157 -18 9 -33 19 -33 22 0 7 203 -101 243 -129 16 -10
30 -17 33 -15 2 3 -18 19 -45 37 -46 29 -51 37 -76 112 -15 44 -28 79 -30 77
-2 -2 1 -23 5 -48 18 -93 20 -92 -67 -47 -43 22 -83 46 -90 54 -6 8 -17 12
-23 8 -8 -5 -8 -11 1 -21 10 -12 9 -13 -5 -8 -10 4 -15 13 -12 20 3 7 0 16 -6
20 -7 4 -6 9 2 14 27 17 -3 27 -80 29 -50 1 -80 -2 -80 -8 0 -6 -9 -11 -19
-11 -11 0 -22 -6 -24 -12 -3 -8 -6 -7 -6 4 -1 10 8 18 22 21 13 3 7 5 -16 6
-28 1 -36 -2 -31 -11 6 -10 4 -10 -7 0 -7 6 -22 12 -33 12 -16 0 -10 -8 23
-29z m311 -362 c0 -5 5 -7 12 -3 7 5 9 2 6 -8 -5 -11 1 -15 24 -16 33 -1 58
-17 58 -38 0 -8 9 -14 19 -14 22 0 51 -50 51 -87 0 -12 4 -23 9 -23 15 0 25
21 14 29 -6 3 -7 15 -3 25 6 17 8 15 18 -14 18 -49 -4 -141 -22 -94 -3 8 -2
12 4 9 6 -3 10 -2 10 4 0 6 -8 15 -18 20 -11 6 -24 32 -32 65 -7 31 -17 56
-23 56 -5 0 -6 -7 -3 -16 10 -25 -4 -37 -21 -17 -13 16 -14 16 -9 1 3 -10 0
-20 -6 -24 -7 -4 -8 -3 -4 4 4 7 2 12 -3 12 -12 0 -10 27 3 48 12 20 -1 42
-25 42 -20 0 -21 -4 -16 -45 4 -43 3 -45 -17 -39 -18 6 -19 5 -7 -9 7 -9 18
-14 23 -11 5 3 23 -7 40 -22 28 -27 30 -27 24 -7 -6 18 -4 22 9 17 11 -4 14
-13 9 -28 -6 -21 -6 -21 10 -1 15 20 15 20 16 -2 0 -13 -5 -23 -11 -23 -8 0
-8 -4 0 -14 8 -10 9 -16 1 -21 -6 -4 -9 -1 -8 7 2 7 -4 12 -12 11 -9 -2 -43
25 -75 58 -33 34 -54 59 -47 55 17 -10 15 2 -5 22 -16 16 -15 18 9 26 24 9 25
9 7 27 -23 23 -33 24 -25 3 4 -11 -1 -18 -14 -21 -17 -5 -18 -8 -8 -22 12 -14
11 -14 -4 -2 -10 7 -15 17 -12 22 3 5 -2 12 -10 15 -9 3 -16 12 -16 20 0 19
16 18 24 -1 3 -8 10 -15 16 -15 6 0 9 4 5 9 -3 5 -1 12 5 16 6 4 8 11 5 16 -4
5 1 9 9 9 9 0 16 -5 16 -11z m-397 -101 c39 -82 42 -92 24 -94 -42 -4 -42 -3
-25 -20 12 -13 20 -14 37 -5 22 12 41 7 41 -10 0 -5 -10 -14 -22 -19 -20 -8
-18 -9 11 -6 26 4 34 1 38 -14 5 -17 21 -29 48 -35 6 -2 11 6 11 16 0 12 -5
18 -13 15 -7 -3 -12 0 -10 7 1 7 -4 11 -11 9 -13 -2 -42 54 -42 83 0 8 7 15
16 15 8 0 12 5 9 10 -4 6 11 10 37 10 32 0 39 3 28 10 -11 7 -6 8 16 4 34 -6
78 11 69 27 -4 5 -2 8 4 7 5 -2 16 5 23 14 12 16 23 9 121 -82 60 -55 120
-105 135 -112 15 -7 28 -23 30 -35 2 -12 13 -25 24 -29 11 -3 16 -9 11 -13 -6
-3 -9 -18 -9 -33 1 -18 -4 -28 -16 -31 -13 -4 -18 1 -18 14 0 10 5 19 11 19 8
0 8 5 -1 15 -10 12 -10 15 1 15 9 1 5 8 -9 20 -18 15 -29 17 -42 10 -9 -5 -20
-6 -24 -3 -3 4 -16 1 -29 -5 -12 -6 -44 -12 -70 -14 -48 -3 -48 -3 -45 23 3
19 0 25 -9 22 -17 -7 -16 3 3 36 9 16 28 33 43 38 24 10 24 11 4 12 -35 2 -76
-18 -70 -33 3 -8 0 -22 -7 -32 -11 -15 -12 -13 -8 16 3 25 1 31 -9 28 -9 -3
-15 -22 -16 -49 -7 -112 -12 -129 -49 -146 -19 -9 -34 -20 -34 -24 0 -10 -60
-33 -67 -25 -3 3 1 6 10 6 10 0 17 7 17 15 0 8 5 15 11 15 11 0 -15 40 -50 77
-12 12 -21 26 -21 30 0 5 -13 14 -29 20 -24 9 -29 8 -24 -3 6 -17 4 -17 -40 1
-32 13 -38 13 -51 0 -8 -9 -16 -11 -18 -4 -2 5 -13 11 -25 12 -15 1 -19 5 -13
13 6 6 6 15 2 19 -4 5 6 1 21 -8 30 -19 47 -15 47 10 0 11 7 14 25 11 13 -3
22 -1 19 3 -3 5 -11 9 -18 9 -7 0 -13 6 -14 13 -3 37 -11 52 -28 56 -30 5 -44
21 -44 49 l0 26 -16 -22 c-8 -12 -22 -22 -31 -22 -12 0 -9 6 9 23 14 13 29 35
33 48 22 70 46 64 88 -23z m92 -260 c6 -5 10 -23 10 -40 0 -18 6 -33 14 -36 8
-3 11 0 8 5 -3 5 4 9 16 8 24 -3 25 -25 1 -38 -8 -4 -14 -15 -14 -23 0 -18
-25 -46 -34 -37 -3 4 -6 1 -6 -5 0 -15 -33 -15 -48 0 -9 9 -13 7 -18 -5 -3 -9
-11 -17 -16 -17 -6 0 -8 6 -5 14 4 10 -2 13 -23 11 -15 -1 -33 -5 -39 -9 -16
-10 -2 25 21 50 13 15 17 29 13 46 -4 16 -1 31 9 41 21 21 5 30 -39 21 -21 -4
-41 -2 -49 5 -10 8 -21 8 -41 1 -24 -9 -26 -9 -16 4 20 24 231 27 256 4z"/>
<path d="M13 543 c-19 -7 -17 -99 2 -107 8 -3 15 -11 15 -17 0 -8 -4 -8 -15 1
-8 7 -15 8 -15 3 0 -5 11 -15 25 -21 14 -6 25 -16 25 -21 0 -18 32 -21 61 -6
16 9 34 13 39 10 5 -3 12 0 16 6 5 8 3 9 -6 4 -9 -5 -11 -4 -6 3 4 7 14 12 22
12 9 0 12 -5 8 -11 -4 -8 0 -8 15 0 11 7 21 14 21 17 0 3 -5 2 -12 -2 -7 -4
-8 -3 -4 4 4 7 13 12 20 12 15 0 40 27 49 52 5 14 -1 16 -43 12 -27 -2 -51 0
-55 6 -3 5 -11 10 -17 10 -7 0 -6 -6 2 -15 10 -12 9 -15 -4 -15 -22 0 -58 19
-72 38 -8 11 -13 12 -18 4 -10 -17 -26 -15 -26 2 0 18 -11 25 -27 19z"/>
<path d="M1330 455 c-25 -24 -54 -53 -65 -64 -12 -11 -33 -25 -48 -32 -15 -7
-27 -18 -27 -25 0 -7 -9 -16 -20 -19 -11 -3 -20 -12 -20 -19 0 -7 -12 -18 -26
-24 -14 -7 -22 -17 -19 -22 3 -6 2 -10 -4 -10 -6 0 -23 -12 -39 -28 -16 -15
-44 -38 -62 -52 -17 -14 -43 -36 -58 -49 -14 -13 -40 -30 -58 -37 -39 -16 -43
-22 -35 -54 6 -23 10 -21 97 55 122 109 181 157 232 189 24 15 41 30 38 34 -4
3 8 13 26 22 18 9 32 22 30 28 -1 7 9 17 23 22 14 5 25 14 25 20 0 7 -7 7 -22
0 -21 -10 -21 -9 2 9 14 11 31 21 38 21 6 0 11 5 10 12 -2 7 7 17 20 23 20 9
32 46 15 44 -5 0 -28 -20 -53 -44z"/>
<path d="M1297 214 c-20 -13 -40 -24 -46 -24 -5 0 -15 -8 -20 -17 -6 -11 -11
-13 -11 -5 0 9 -5 10 -19 3 -12 -7 -17 -19 -16 -36 3 -27 -2 -30 -25 -15 -13
9 -13 11 0 20 8 5 10 10 4 10 -18 0 -55 -46 -49 -62 5 -12 0 -15 -20 -13 -21
3 -24 1 -15 -10 7 -8 7 -15 1 -19 -5 -4 -15 2 -21 11 -9 15 -10 15 -4 -6 4
-16 3 -21 -5 -17 -6 4 -11 14 -11 22 0 8 -4 14 -10 14 -13 0 -13 -13 2 -45 10
-23 17 -25 70 -25 59 0 63 3 59 43 -1 9 3 17 9 17 7 0 10 -7 7 -15 -4 -8 -2
-17 2 -20 12 -7 18 13 17 62 -1 24 2 43 6 43 4 0 4 7 1 17 -4 11 -3 14 5 9 7
-4 10 -17 8 -29 -3 -12 -7 -46 -11 -74 l-6 -53 96 0 95 0 0 109 0 109 -29 10
c-24 9 -35 6 -64 -14z"/>
</g>
</svg>
